<svg width="76" height="66" viewBox="0 0 76 66" fill="none" xmlns="http://www.w3.org/2000/svg">
<g filter="url(#filter0_i_368_19870)">
<rect width="76" height="66" transform="matrix(-1 0 0 1 76 0)" fill="white"/>
<rect x="-1.5" y="1.5" width="73" height="63" transform="matrix(-1 0 0 1 73 0)" stroke="black" stroke-width="3"/>
<rect x="40.3652" y="35.4284" width="4.85714" height="4.85714" transform="rotate(180 40.3652 35.4284)" fill="#110404"/>
<rect x="45.2217" y="35.4284" width="4.85714" height="4.85714" transform="rotate(180 45.2217 35.4284)" fill="#110404"/>
<rect x="50.0791" y="35.4283" width="4.85714" height="4.85714" transform="rotate(180 50.0791 35.4283)" fill="#110404"/>
<rect x="35.5078" y="35.4283" width="4.85714" height="4.85714" transform="rotate(180 35.5078 35.4283)" fill="#110404"/>
<rect x="30.6504" y="35.4283" width="4.85714" height="4.85714" transform="rotate(180 30.6504 35.4283)" fill="#110404"/>
<rect x="25.793" y="35.4284" width="4.85714" height="4.85714" transform="rotate(180 25.793 35.4284)" fill="#110404"/>
<rect x="20.9365" y="35.4284" width="4.85714" height="4.85714" transform="rotate(180 20.9365 35.4284)" fill="#110404"/>
<rect x="25.7939" y="40.2858" width="4.85714" height="4.85714" transform="rotate(180 25.7939 40.2858)" fill="#110404"/>
<rect x="30.6504" y="45.1423" width="4.85714" height="4.85714" transform="rotate(180 30.6504 45.1423)" fill="#110404"/>
<rect x="35.5078" y="49.9997" width="4.85714" height="4.85714" transform="rotate(180 35.5078 49.9997)" fill="#110404"/>
<rect x="25.793" y="30.571" width="4.85714" height="4.85714" transform="rotate(180 25.793 30.571)" fill="#110404"/>
<rect x="30.6504" y="25.7136" width="4.85714" height="4.85714" transform="rotate(180 30.6504 25.7136)" fill="#110404"/>
<rect x="35.5078" y="20.8571" width="4.85714" height="4.85714" transform="rotate(180 35.5078 20.8571)" fill="#110404"/>
</g>
<defs>
<filter id="filter0_i_368_19870" x="0" y="0" width="76" height="66" filterUnits="userSpaceOnUse" color-interpolation-filters="sRGB">
<feFlood flood-opacity="0" result="BackgroundImageFix"/>
<feBlend mode="normal" in="SourceGraphic" in2="BackgroundImageFix" result="shape"/>
<feColorMatrix in="SourceAlpha" type="matrix" values="0 0 0 0 0 0 0 0 0 0 0 0 0 0 0 0 0 0 127 0" result="hardAlpha"/>
<feOffset dx="-8" dy="-5"/>
<feComposite in2="hardAlpha" operator="arithmetic" k2="-1" k3="1"/>
<feColorMatrix type="matrix" values="0 0 0 0 0 0 0 0 0 0 0 0 0 0 0 0 0 0 0.17 0"/>
<feBlend mode="normal" in2="shape" result="effect1_innerShadow_368_19870"/>
</filter>
</defs>
</svg>
