<svg width="50" height="49" viewBox="0 0 50 49" fill="none" xmlns="http://www.w3.org/2000/svg">
<rect x="22.8594" y="0.916687" width="4.15138" height="2.07569" fill="white"/>
<rect width="4.15138" height="2.07569" transform="matrix(1 0 0 -1 22.8594 48.9167)" fill="white"/>
<rect x="29.0869" y="5.06807" width="4.15138" height="2.07569" fill="white"/>
<rect width="4.15138" height="2.07569" transform="matrix(1 0 0 -1 29.0869 44.7659)" fill="white"/>
<rect width="4.15138" height="2.07569" transform="matrix(-1 0 0 1 20.9141 5.06807)" fill="white"/>
<rect x="20.9141" y="44.7659" width="4.15138" height="2.07569" transform="rotate(180 20.9141 44.7659)" fill="white"/>
<rect x="16.6318" y="12.9819" width="4.15138" height="2.07569" fill="white"/>
<rect width="4.15138" height="2.07569" transform="matrix(1 0 0 -1 16.6318 38.928)" fill="white"/>
<rect x="29.0869" y="12.9819" width="4.15138" height="2.07569" fill="white"/>
<rect width="4.15138" height="2.07569" transform="matrix(1 0 0 -1 29.0869 38.928)" fill="white"/>
<rect x="20.7832" y="10.9061" width="8.30276" height="2.07569" fill="white"/>
<rect width="8.30276" height="2.07569" transform="matrix(1 0 0 -1 20.7832 38.928)" fill="white"/>
<rect x="20.9141" y="2.99237" width="2.07569" height="2.07569" fill="white"/>
<rect width="2.07569" height="2.07569" transform="matrix(1 0 0 -1 20.9141 46.8417)" fill="white"/>
<rect x="14.5566" y="15.0576" width="2.07569" height="2.07569" fill="white"/>
<rect width="2.07569" height="2.07569" transform="matrix(1 0 0 -1 14.5576 34.7765)" fill="white"/>
<rect width="2.07569" height="2.07569" transform="matrix(-1 0 0 1 35.3135 15.0576)" fill="white"/>
<rect x="35.3135" y="34.7764" width="2.07569" height="2.07569" transform="rotate(180 35.3135 34.7764)" fill="white"/>
<rect x="33.2373" y="36.8521" width="2.07569" height="2.07569" transform="rotate(180 33.2373 36.8521)" fill="white"/>
<rect x="18.707" y="36.8522" width="2.07569" height="2.07569" transform="rotate(180 18.707 36.8522)" fill="white"/>
<rect x="31.0322" y="32.96" width="2.07569" height="2.07569" transform="rotate(180 31.0322 32.96)" fill="white"/>
<rect x="33.1084" y="30.8843" width="2.07569" height="2.07569" transform="rotate(180 33.1084 30.8843)" fill="white"/>
<rect x="18.8379" y="30.8844" width="2.07569" height="2.07569" transform="rotate(180 18.8379 30.8844)" fill="white"/>
<rect x="20.9141" y="32.9601" width="2.07569" height="2.07569" transform="rotate(180 20.9141 32.9601)" fill="white"/>
<rect x="12.4805" y="17.1334" width="2.07569" height="4.15138" fill="white"/>
<rect x="10.5342" y="21.2841" width="1.94596" height="9.3406" fill="white"/>
<rect x="37.3896" y="21.2841" width="1.94596" height="9.3406" fill="white"/>
<rect x="47.6387" y="23.3599" width="1.94596" height="3.11353" fill="white"/>
<rect x="0.416016" y="23.3599" width="1.94596" height="3.11353" fill="white"/>
<rect x="18.8379" y="18.9492" width="1.94596" height="5.83788" fill="white"/>
<rect x="29.0869" y="18.9492" width="1.94596" height="5.83788" fill="white"/>
<rect x="28.9561" y="32.96" width="1.94596" height="8.04329" transform="rotate(90 28.9561 32.96)" fill="white"/>
<rect x="33.1084" y="26.8628" width="1.94596" height="16.3461" transform="rotate(90 33.1084 26.8628)" fill="white"/>
<rect width="2.07569" height="2.07569" transform="matrix(1 0 0 -1 12.4814 32.7007)" fill="white"/>
<rect width="2.07569" height="4.15138" transform="matrix(-1 0 0 1 37.3896 17.1334)" fill="white"/>
<rect x="37.3896" y="32.7007" width="2.07569" height="2.07569" transform="rotate(180 37.3896 32.7007)" fill="white"/>
<rect width="2.07569" height="4.15138" transform="matrix(-1 0 0 1 45.5625 17.1334)" fill="white"/>
<rect x="45.5625" y="32.7007" width="2.07569" height="4.15138" transform="rotate(180 45.5625 32.7007)" fill="white"/>
<rect x="4.4375" y="17.1334" width="2.07569" height="4.15138" fill="white"/>
<rect width="2.07569" height="4.15138" transform="matrix(1 0 0 -1 4.4375 32.7007)" fill="white"/>
<rect width="2.07569" height="4.41084" transform="matrix(1.19249e-08 -1 -1 -1.19249e-08 43.875 21.2841)" fill="white"/>
<rect x="43.876" y="28.5492" width="2.07569" height="4.41084" transform="rotate(90 43.876 28.5492)" fill="white"/>
<rect x="6.125" y="21.2841" width="2.07569" height="4.41084" transform="rotate(-90 6.125 21.2841)" fill="white"/>
<rect width="2.07569" height="4.41084" transform="matrix(-1.19249e-08 1 1 1.19249e-08 6.12402 28.5492)" fill="white"/>
<rect width="2.07569" height="5.83788" transform="matrix(-1 0 0 1 31.1621 5.06807)" fill="white"/>
<rect x="31.1621" y="44.7659" width="2.07569" height="5.83788" transform="rotate(180 31.1621 44.7659)" fill="white"/>
<rect x="18.8379" y="5.06807" width="2.07569" height="5.83788" fill="white"/>
<rect width="2.07569" height="5.83788" transform="matrix(1 0 0 -1 18.8379 44.7659)" fill="white"/>
<rect width="2.07569" height="6.22707" transform="matrix(1.19249e-08 -1 -1 -1.19249e-08 39.4658 5.06818)" fill="white"/>
<rect x="39.4658" y="44.7659" width="2.07569" height="6.22707" transform="rotate(90 39.4658 44.7659)" fill="white"/>
<rect x="10.5342" y="5.06818" width="2.07569" height="6.22707" transform="rotate(-90 10.5342 5.06818)" fill="white"/>
<rect width="2.07569" height="6.22707" transform="matrix(-1.19249e-08 1 1 1.19249e-08 10.5342 44.7659)" fill="white"/>
<rect width="2.07569" height="5.83788" transform="matrix(1 0 0 -1 39.4658 10.9061)" fill="white"/>
<rect x="39.4658" y="38.928" width="2.07569" height="5.83788" fill="white"/>
<rect x="10.5342" y="10.9061" width="2.07569" height="5.83788" transform="rotate(-180 10.5342 10.9061)" fill="white"/>
<rect width="2.07569" height="5.83788" transform="matrix(-1 0 0 1 10.5342 38.928)" fill="white"/>
<rect width="2.07569" height="5.83788" transform="matrix(-4.37114e-08 -1 -1 4.37114e-08 45.5625 10.9061)" fill="white"/>
<rect x="45.5625" y="38.928" width="2.07569" height="5.83788" transform="rotate(90 45.5625 38.928)" fill="white"/>
<rect x="4.4375" y="10.9061" width="2.07569" height="5.83788" transform="rotate(-90 4.4375 10.9061)" fill="white"/>
<rect width="2.07569" height="5.83788" transform="matrix(4.37114e-08 1 1 -4.37114e-08 4.4375 38.928)" fill="white"/>
<rect width="2.07569" height="6.22707" transform="matrix(1 0 0 -1 45.5625 17.1334)" fill="white"/>
<rect x="45.5625" y="32.7007" width="2.07569" height="6.22707" fill="white"/>
<rect x="4.4375" y="17.1334" width="2.07569" height="6.22707" transform="rotate(180 4.4375 17.1334)" fill="white"/>
<rect width="2.07569" height="6.22707" transform="matrix(-1 0 0 1 4.4375 32.7007)" fill="white"/>
<rect x="27.0107" y="2.99237" width="2.07569" height="2.07569" fill="white"/>
<rect width="2.07569" height="2.07569" transform="matrix(1 0 0 -1 27.0107 46.8417)" fill="white"/>
<rect x="35.3135" y="12.9819" width="2.07569" height="2.07569" fill="white"/>
<rect width="2.07569" height="2.07569" transform="matrix(1 0 0 -1 35.3135 36.8521)" fill="white"/>
<rect width="2.07569" height="2.07569" transform="matrix(-1 0 0 1 14.6865 12.9819)" fill="white"/>
<rect x="14.6865" y="36.8521" width="2.07569" height="2.07569" transform="rotate(180 14.6865 36.8521)" fill="white"/>
<rect x="45.5625" y="21.2841" width="2.07569" height="2.07569" fill="white"/>
<rect width="2.07569" height="2.07569" transform="matrix(1 0 0 -1 45.5625 28.5493)" fill="white"/>
<rect width="2.07569" height="2.07569" transform="matrix(-1 0 0 1 4.4375 21.2841)" fill="white"/>
<rect x="4.4375" y="28.5493" width="2.07569" height="2.07569" transform="rotate(180 4.4375 28.5493)" fill="white"/>
<rect x="37.3896" y="10.9061" width="2.07569" height="2.07569" fill="white"/>
<rect width="2.07569" height="2.07569" transform="matrix(1 0 0 -1 37.3896 38.928)" fill="white"/>
<rect width="2.07569" height="2.07569" transform="matrix(-1 0 0 1 12.6104 10.9061)" fill="white"/>
<rect x="12.6104" y="38.928" width="2.07569" height="2.07569" transform="rotate(180 12.6104 38.928)" fill="white"/>
</svg>
