<svg width="35" height="37" viewBox="0 0 35 37" fill="none" xmlns="http://www.w3.org/2000/svg">
<g filter="url(#filter0_d_368_20435)">
<path d="M1.34082 7.70178L7.38574 1.62268L27.3857 1.63706L33.395 7.67542L33.395 27.672L27.4012 33.6992L7.42139 33.6994L1.40814 27.6785L1.34082 7.70178Z" fill="#F9FF43"/>
<rect x="4.39453" y="2.67542" width="2" height="2" fill="black"/>
<rect width="2" height="2" transform="matrix(1 0 0 -1 4.39453 32.6754)" fill="black"/>
<rect x="2.39453" y="4.67542" width="2" height="2" fill="black"/>
<rect width="2" height="2" transform="matrix(-1 0 0 1 30.3945 2.67542)" fill="black"/>
<rect width="2" height="2" transform="matrix(-1 0 0 1 32.3945 4.67542)" fill="black"/>
<rect width="2" height="2" transform="matrix(1 0 0 -1 2.39453 30.6754)" fill="black"/>
<rect x="30.3945" y="32.6754" width="2" height="2" transform="rotate(180 30.3945 32.6754)" fill="black"/>
<rect x="32.3945" y="30.6754" width="2" height="2" transform="rotate(180 32.3945 30.6754)" fill="black"/>
<rect x="0.394531" y="6.67542" width="2" height="22" fill="black"/>
<rect width="2" height="22" transform="matrix(-1 0 0 1 34.3945 6.67542)" fill="black"/>
<rect x="28.3945" y="0.675415" width="2" height="22" transform="rotate(90 28.3945 0.675415)" fill="black"/>
<rect x="28.3945" y="32.6754" width="2" height="22" transform="rotate(90 28.3945 32.6754)" fill="black"/>
<path d="M9.17197 7.55975L9.22986 9.75146L7.19667 9.65058L6.62914 10.8443L6.72462 13.5165L6.99377 13.695L6.98601 15.6975L6.68285 15.8723L5.82529 16.7748L5.72981 16.9336L5.4541 18.295L6.10279 18.6591L6.9514 19.6672L7.02002 21.5689L6.79206 21.7897L6.64525 24.7496L7.11014 25.2289L9.57002 25.849L9.70429 27.5411L10.1089 28.1153L13.1369 28.3135L13.5743 27.448L15.3193 27.8181L15.752 28.4722L16.8333 29.3902L18.509 29.4827L18.7829 28.6012L20.2504 27.6695L21.5281 27.7465L22.4578 28.4663L24.79 28.3296L25.4733 27.6754L25.8791 25.4778L27.9553 25.3262L28.8922 24.3533L28.7842 22.2403L27.4868 20.8556L27.8109 19.7383L28.0221 19.8069L28.6798 19.219L29.307 18.5971L29.6262 18.0909L29.5355 16.9945L29.0187 16.5223L28.3814 15.9022L28.1958 15.6121L27.9648 13.8734L28.5706 13.3906L28.558 10.6814L27.8049 9.75146L26.1035 9.52047L25.6995 8.66993L25.4727 7.55199L24.4737 6.88887L23.5911 6.65788L22.7652 6.72652L21.3777 7.6457L20.0189 7.7215L19.2401 6.70146L18.1152 5.82883L16.9365 5.76019L16.5331 6.09563L16.4287 6.45256L16.1727 6.75935L15.6606 7.03331L15.1271 7.75791L13.3899 7.63854L13.0331 6.54269L10.35 6.64475L9.96031 7.48156L9.17197 7.55975Z" fill="white"/>
<path d="M10.5039 16.0602L10.6626 20.2282L11.5459 21.1766L12.5407 22.0958L13.7086 23.3253L14.1848 24.2194L18.0417 24.8032L21.7327 24.2069L21.4827 23.0537L22.456 22.4551L23.3428 21.1712L24.6259 20.2055L24.2296 16.0304L23.4944 15.0139L23.1119 13.7951L22.499 13.0669L21.3311 12.0433L19.9472 11.6828L19.3128 11.0477L15.9458 10.8824L14.9654 11.8607L13.4663 12.2689L12.9328 12.8073L12.3223 13.3075L11.9087 13.961L11.5292 15.0617L10.8996 16.0089L10.5039 16.0602Z" fill="#F9FF43"/>
<path d="M18.6268 5.15198H16.4629V6.2341H18.6268V5.15198Z" fill="black"/>
<path d="M15.3807 11.4427H13.2168V12.5248H15.3807V11.4427Z" fill="black"/>
<path d="M15.3807 23.8886H13.2168V24.9707H15.3807V23.8886Z" fill="black"/>
<path d="M21.8729 11.4427H19.709V12.5248H21.8729V11.4427Z" fill="black"/>
<path d="M19.7082 10.3597H15.3799V11.4419H19.7082V10.3597Z" fill="black"/>
<path d="M19.7083 23.8886H15.3799V24.9707H19.7083H21.8727V23.8886H19.7083Z" fill="black"/>
<path d="M16.5302 6.23395H15.4482V7.31607H16.5302V6.23395Z" fill="black"/>
<path d="M13.2167 12.5247H12.1348V13.6068H13.2167V12.5247Z" fill="black"/>
<path d="M13.2167 21.7238H12.1348V22.8059H13.2167V21.7238Z" fill="black"/>
<path d="M22.955 12.5247H21.873V13.6068H22.955V12.5247Z" fill="black"/>
<path d="M21.873 22.8066H20.791V23.8888H21.873V22.8066Z" fill="black"/>
<path d="M14.2987 22.8066H13.2168V23.8888H14.2987V22.8066Z" fill="black"/>
<path d="M20.7235 20.7772H19.6416V21.8593H20.7235V20.7772Z" fill="black"/>
<path d="M21.806 20.7767V19.6946V18.6799H13.2842V19.6946V20.7767H14.3661V19.6946H20.7235V20.7767H21.806Z" fill="black"/>
<path d="M15.4482 20.7772H14.3662V21.8593H15.4482V20.7772Z" fill="black"/>
<path d="M30.3944 16.8535H29.3799V18.4769H30.3944V16.8535Z" fill="black"/>
<path d="M5.7772 16.8535H4.7627V18.4769H5.7772V16.8535Z" fill="black"/>
<path d="M15.3807 14.5541H14.3662V17.5982H15.3807V14.5541Z" fill="black"/>
<path d="M20.7235 14.5541H19.709V17.5982H20.7235V14.5541Z" fill="black"/>
<path d="M19.6411 21.86H15.4482V22.8747H19.6411V21.86Z" fill="black"/>
<path d="M12.1337 20.6418H11.0518V21.7239H12.1337V20.6418Z" fill="black"/>
<path d="M22.955 21.7239H21.873V22.806H22.955V21.7239H24.0369V20.6418H22.955V21.7239Z" fill="black"/>
<path d="M27.2162 14.6897H25.1191V15.7718H27.2162V15.7724H28.2981V13.6075H27.2162V14.6897Z" fill="black"/>
<path d="M7.94132 20.6422H10.0384H11.0523V15.7724H12.1348V13.6075H11.0523V15.7718H10.0384V19.5601H7.73901H6.85938L6.85938 21.7244H7.94132V20.6422Z" fill="black"/>
<path d="M27.6337 19.5601H25.0515V15.7718H24.037V13.6075H22.9551V15.7724H24.037V20.6422H24.8737H27.216V21.7244H28.298V19.5601H27.6337Z" fill="black"/>
<path d="M19.709 10.3603H20.7915V8.39902H21.8735V7.31689H20.7915H19.709V8.39902V10.3603Z" fill="black"/>
<path d="M20.7915 24.9706H19.709V26.9325V28.0146H20.7915H21.8735V26.9325H20.7915V24.9706Z" fill="black"/>
<path d="M14.3661 10.3603H15.4487V8.39902V7.31689H14.3661H13.2842V8.39902H14.3661V10.3603Z" fill="black"/>
<path d="M15.4484 24.9706H14.3659V26.9325H13.2839V28.0146H10.0381V29.0967H13.2839V28.0146H15.4484V26.9325V24.9706Z" fill="black"/>
<path d="M25.1195 6.23395H21.873V7.31607H25.1195V6.23395Z" fill="black"/>
<path d="M25.1195 28.0154H21.873V29.0975H25.1195V28.0154Z" fill="black"/>
<path d="M13.2845 6.23395H10.0381V7.31607H13.2845V6.23395Z" fill="black"/>
<path d="M25.1191 7.31689V10.3603H25.2546H26.2017H28.2981V9.27821H26.2017V7.31689H25.1191Z" fill="black"/>
<path d="M8.95583 10.3603H10.0384V7.31689H8.95583V9.27821H6.85938V10.3603H8.95583Z" fill="black"/>
<path d="M10.0384 28.0146V24.9706H9.9029H8.95583H6.85938V26.0527H8.95583V28.0146H10.0384Z" fill="black"/>
<path d="M25.2546 24.9706H25.1191V28.0146H26.2017V26.0527H28.2981V24.9706H25.2546Z" fill="black"/>
<path d="M29.3798 10.3607H28.2979V13.6077H29.3798V10.3607Z" fill="black"/>
<path d="M29.3798 21.7238H28.2979V24.9707H29.3798V21.7238Z" fill="black"/>
<path d="M6.85929 21.7238H5.77734V24.9707H6.85929V21.7238Z" fill="black"/>
<path d="M19.7089 6.23395H18.627V7.31607H19.7089V6.23395Z" fill="black"/>
<path d="M18.6266 29.0975H16.5302V28.0154H15.4482V29.0975H16.4627V30.1796H18.6266V29.0975H19.7086V28.0154H18.6266V29.0975Z" fill="black"/>
<path d="M24.037 11.4427H22.9551V12.5248H24.037V11.4427Z" fill="black"/>
<path d="M24.037 22.8066H22.9551V23.8888H24.037V22.8066Z" fill="black"/>
<path d="M12.2021 11.4427H11.1201V12.5248H12.2021V11.4427Z" fill="black"/>
<path d="M12.2021 22.8066H11.1201V23.8888H12.2021V22.8066Z" fill="black"/>
<path d="M29.3798 15.7715H28.2979V16.8536H29.3798V15.7715Z" fill="black"/>
<path d="M29.3798 18.4769H28.2979V19.559H29.3798V18.4769Z" fill="black"/>
<path d="M6.85929 15.7719H7.94123V15.7713H10.0383V14.6892H7.94123V13.6071H6.85929V10.3607H5.77734V13.6071H6.85929V15.7713H5.77734V16.8535H6.85929V15.7719Z" fill="black"/>
<path d="M6.85929 18.4769H5.77734V19.559H6.85929V18.4769Z" fill="black"/>
<path d="M25.1191 10.3597H24.0371V11.4419H25.1191V10.3597Z" fill="black"/>
<path d="M25.1191 23.8886H24.0371V24.9707H25.1191V23.8886Z" fill="black"/>
<path d="M11.12 10.3597H10.0381V11.4419H11.12V10.3597Z" fill="black"/>
<path d="M11.12 23.8886H10.0381V24.9707H11.12V23.8886Z" fill="black"/>
</g>
<defs>
<filter id="filter0_d_368_20435" x="0.394531" y="0.675415" width="34" height="36" filterUnits="userSpaceOnUse" color-interpolation-filters="sRGB">
<feFlood flood-opacity="0" result="BackgroundImageFix"/>
<feColorMatrix in="SourceAlpha" type="matrix" values="0 0 0 0 0 0 0 0 0 0 0 0 0 0 0 0 0 0 127 0" result="hardAlpha"/>
<feOffset dy="2"/>
<feComposite in2="hardAlpha" operator="out"/>
<feColorMatrix type="matrix" values="0 0 0 0 0 0 0 0 0 0 0 0 0 0 0 0 0 0 0.6 0"/>
<feBlend mode="normal" in2="BackgroundImageFix" result="effect1_dropShadow_368_20435"/>
<feBlend mode="normal" in="SourceGraphic" in2="effect1_dropShadow_368_20435" result="shape"/>
</filter>
</defs>
</svg>
