<svg width="35" height="37" viewBox="0 0 35 37" fill="none" xmlns="http://www.w3.org/2000/svg">
<path d="M1.94629 9.20752L7.99121 3.12842L27.9911 3.1428L34.0005 9.18115L34.0005 29.1778L28.0067 35.2049L8.02686 35.2051L2.01361 29.1843L1.94629 9.20752Z" fill="#FF61B8"/>
<rect x="5" y="4.18115" width="2" height="2" fill="black"/>
<rect width="2" height="2" transform="matrix(1 0 0 -1 5 34.1812)" fill="black"/>
<rect x="3" y="6.18115" width="2" height="2" fill="black"/>
<rect width="2" height="2" transform="matrix(-1 0 0 1 31 4.18115)" fill="black"/>
<rect width="2" height="2" transform="matrix(-1 0 0 1 33 6.18115)" fill="black"/>
<rect width="2" height="2" transform="matrix(1 0 0 -1 3 32.1812)" fill="black"/>
<rect x="31" y="34.1812" width="2" height="2" transform="rotate(180 31 34.1812)" fill="black"/>
<rect x="33" y="32.1812" width="2" height="2" transform="rotate(180 33 32.1812)" fill="black"/>
<rect x="1" y="8.18115" width="2" height="22" fill="black"/>
<rect width="2" height="22" transform="matrix(-1 0 0 1 35 8.18115)" fill="black"/>
<rect x="29" y="2.18115" width="2" height="22" transform="rotate(90 29 2.18115)" fill="black"/>
<rect x="29" y="34.1812" width="2" height="22" transform="rotate(90 29 34.1812)" fill="black"/>
<path d="M9.77744 9.06549L9.83533 11.2572L7.80214 11.1563L7.23461 12.3501L7.33009 15.0222L7.59923 15.2007L7.59148 17.2032L7.28832 17.3781L6.43076 18.2805L6.33528 18.4393L6.05957 19.8008L6.70826 20.1649L7.55686 21.173L7.62549 23.0746L7.39753 23.2954L7.25072 26.2553L7.7156 26.7346L10.1755 27.3547L10.3098 29.0469L10.7144 29.6211L13.7424 29.8192L14.1798 28.9538L15.9248 29.3238L16.3574 29.978L17.4388 30.896L19.1145 30.9885L19.3884 30.1069L20.8559 29.1752L22.1335 29.2522L23.0633 29.972L25.3955 29.8353L26.0788 29.1812L26.4846 26.9835L28.5608 26.8319L29.4977 25.859L29.3897 23.7461L28.0923 22.3613L28.4163 21.244L28.6276 21.3126L29.2852 20.7247L29.9124 20.1028L30.2317 19.5966L30.141 18.5002L29.6242 18.0281L28.9868 17.4079L28.8013 17.1178L28.5703 15.3792L29.176 14.8963L29.1635 12.1871L28.4104 11.2572L26.709 11.0262L26.305 10.1757L26.0782 9.05773L25.0792 8.39461L24.1966 8.16362L23.3707 8.23226L21.9832 9.15144L20.6243 9.22724L19.8455 8.20719L18.7206 7.33457L17.542 7.26593L17.1386 7.60137L17.0342 7.9583L16.7781 8.26509L16.2661 8.53905L15.7326 9.26365L13.9954 9.14428L13.6385 8.04843L10.9555 8.15049L10.5658 8.9873L9.77744 9.06549Z" fill="white"/>
<path d="M11.1094 17.566L11.2681 21.7339L12.1513 22.6823L13.1461 23.6015L14.314 24.831L14.7902 25.7252L18.6472 26.3089L22.3382 25.7126L22.0881 24.5595L23.0615 23.9608L23.9483 22.6769L25.2313 21.7112L24.8351 17.5361L24.0999 16.5196L23.7173 15.3008L23.1044 14.5727L21.9366 13.549L20.5527 13.1885L19.9183 12.5535L16.5513 12.3881L15.5708 13.3664L14.0717 13.7746L13.5382 14.313L12.9277 14.8132L12.5142 15.4668L12.1346 16.5674L11.505 17.5146L11.1094 17.566Z" fill="#F9FF43"/>
<path d="M19.2322 6.65771H17.0684V7.73984H19.2322V6.65771Z" fill="black"/>
<path d="M15.9862 12.9484H13.8223V14.0305H15.9862V12.9484Z" fill="black"/>
<path d="M15.9862 25.3943H13.8223V26.4765H15.9862V25.3943Z" fill="black"/>
<path d="M22.4783 12.9484H20.3145V14.0305H22.4783V12.9484Z" fill="black"/>
<path d="M20.3137 11.8655H15.9854V12.9476H20.3137V11.8655Z" fill="black"/>
<path d="M20.3137 25.3943H15.9854V26.4765H20.3137H22.4782V25.3943H20.3137Z" fill="black"/>
<path d="M17.1357 7.73969H16.0537V8.82181H17.1357V7.73969Z" fill="black"/>
<path d="M13.8222 14.0304H12.7402V15.1125H13.8222V14.0304Z" fill="black"/>
<path d="M13.8222 23.2295H12.7402V24.3116H13.8222V23.2295Z" fill="black"/>
<path d="M23.5605 14.0304H22.4785V15.1125H23.5605V14.0304Z" fill="black"/>
<path d="M22.4784 24.3124H21.3965V25.3945H22.4784V24.3124Z" fill="black"/>
<path d="M14.9042 24.3124H13.8223V25.3945H14.9042V24.3124Z" fill="black"/>
<path d="M21.329 22.2829H20.2471V23.365H21.329V22.2829Z" fill="black"/>
<path d="M22.4115 22.2825V21.2003V20.1857H13.8896V21.2003V22.2825H14.9716V21.2003H21.329V22.2825H22.4115Z" fill="black"/>
<path d="M16.0536 22.2829H14.9717V23.365H16.0536V22.2829Z" fill="black"/>
<path d="M30.9999 18.3592H29.9854V19.9827H30.9999V18.3592Z" fill="black"/>
<path d="M6.38267 18.3592H5.36816V19.9827H6.38267V18.3592Z" fill="black"/>
<path d="M15.9862 16.0599H14.9717V19.1039H15.9862V16.0599Z" fill="black"/>
<path d="M21.329 16.0599H20.3145V19.1039H21.329V16.0599Z" fill="black"/>
<path d="M20.2466 23.3658H16.0537V24.3805H20.2466V23.3658Z" fill="black"/>
<path d="M12.7392 22.1475H11.6572V23.2296H12.7392V22.1475Z" fill="black"/>
<path d="M23.5605 23.2296H22.4785V24.3118H23.5605V23.2296H24.6424V22.1475H23.5605V23.2296Z" fill="black"/>
<path d="M27.8217 16.1954H25.7246V17.2775H27.8217V17.2781H28.9036V15.1133H27.8217V16.1954Z" fill="black"/>
<path d="M8.54679 22.148H10.6438H11.6577V17.2781H12.7403V15.1133H11.6577V17.2775H10.6438V21.0659H8.34448H7.46484L7.46484 23.2301H8.54679V22.148Z" fill="black"/>
<path d="M28.2392 21.0659H25.657V17.2775H24.6425V15.1133H23.5605V17.2781H24.6425V22.148H25.4792H27.8215V23.2301H28.9034V21.0659H28.2392Z" fill="black"/>
<path d="M20.3145 11.8661H21.397V9.90476H22.4789V8.82263H21.397H20.3145V9.90476V11.8661Z" fill="black"/>
<path d="M21.397 26.4763H20.3145V28.4382V29.5203H21.397H22.4789V28.4382H21.397V26.4763Z" fill="black"/>
<path d="M14.9716 11.8661H16.0541V9.90476V8.82263H14.9716H13.8896V9.90476H14.9716V11.8661Z" fill="black"/>
<path d="M16.0539 26.4763H14.9713V28.4382H13.8894V29.5203H10.6436V30.6025H13.8894V29.5203H16.0539V28.4382V26.4763Z" fill="black"/>
<path d="M25.7249 7.73969H22.4785V8.82181H25.7249V7.73969Z" fill="black"/>
<path d="M25.7249 29.5211H22.4785V30.6032H25.7249V29.5211Z" fill="black"/>
<path d="M13.89 7.73969H10.6436V8.82181H13.89V7.73969Z" fill="black"/>
<path d="M25.7246 8.82263V11.8661H25.8601H26.8071H28.9036V10.7839H26.8071V8.82263H25.7246Z" fill="black"/>
<path d="M9.56129 11.8661H10.6438V8.82263H9.56129V10.7839H7.46484V11.8661H9.56129Z" fill="black"/>
<path d="M10.6438 29.5203V26.4763H10.5084H9.56129H7.46484V27.5584H9.56129V29.5203H10.6438Z" fill="black"/>
<path d="M25.8601 26.4763H25.7246V29.5203H26.8071V27.5584H28.9036V26.4763H25.8601Z" fill="black"/>
<path d="M29.9853 11.8665H28.9033V15.1134H29.9853V11.8665Z" fill="black"/>
<path d="M29.9853 23.2295H28.9033V26.4765H29.9853V23.2295Z" fill="black"/>
<path d="M7.46476 23.2295H6.38281V26.4765H7.46476V23.2295Z" fill="black"/>
<path d="M20.3144 7.73969H19.2324V8.82181H20.3144V7.73969Z" fill="black"/>
<path d="M19.2321 30.6032H17.1357V29.5211H16.0537V30.6032H17.0682V31.6854H19.2321V30.6032H20.314V29.5211H19.2321V30.6032Z" fill="black"/>
<path d="M24.6425 12.9484H23.5605V14.0305H24.6425V12.9484Z" fill="black"/>
<path d="M24.6425 24.3124H23.5605V25.3945H24.6425V24.3124Z" fill="black"/>
<path d="M12.8075 12.9484H11.7256V14.0305H12.8075V12.9484Z" fill="black"/>
<path d="M12.8075 24.3124H11.7256V25.3945H12.8075V24.3124Z" fill="black"/>
<path d="M29.9853 17.2772H28.9033V18.3593H29.9853V17.2772Z" fill="black"/>
<path d="M29.9853 19.9826H28.9033V21.0647H29.9853V19.9826Z" fill="black"/>
<path d="M7.46476 17.2777H8.5467V17.2771H10.6437V16.1949H8.5467V15.1128H7.46476V11.8665H6.38281V15.1128H7.46476V17.2771H6.38281V18.3592H7.46476V17.2777Z" fill="black"/>
<path d="M7.46476 19.9826H6.38281V21.0647H7.46476V19.9826Z" fill="black"/>
<path d="M25.7245 11.8655H24.6426V12.9476H25.7245V11.8655Z" fill="black"/>
<path d="M25.7245 25.3943H24.6426V26.4765H25.7245V25.3943Z" fill="black"/>
<path d="M11.7255 11.8655H10.6436V12.9476H11.7255V11.8655Z" fill="black"/>
<path d="M11.7255 25.3943H10.6436V26.4765H11.7255V25.3943Z" fill="black"/>
</svg>
