<svg width="183" height="37" viewBox="0 0 183 37" fill="none" xmlns="http://www.w3.org/2000/svg">
<g filter="url(#filter0_d_452_1366)">
<path d="M0.946289 7.36514L6.99121 1.28604L175.99 1.30057L182 7.33893L182 27.3356L176.006 33.3627H7.02686L1.01361 27.3419L0.946289 7.36514Z" fill="#161616"/>
<rect x="4" y="2.33893" width="2" height="2" fill="black"/>
<rect width="2" height="2" transform="matrix(-1 0 0 1 179 2.33893)" fill="black"/>
<rect width="2" height="2" transform="matrix(1 0 0 -1 4 32.3389)" fill="black"/>
<rect x="179" y="32.3389" width="2" height="2" transform="rotate(180 179 32.3389)" fill="black"/>
<rect x="2" y="4.33893" width="2" height="2" fill="black"/>
<rect width="2" height="2" transform="matrix(-1 0 0 1 181 4.33893)" fill="black"/>
<rect width="2" height="2" transform="matrix(1 0 0 -1 2 30.3389)" fill="black"/>
<rect x="181" y="30.3389" width="2" height="2" transform="rotate(180 181 30.3389)" fill="black"/>
<rect y="6.33893" width="2" height="22" fill="black"/>
<rect width="2" height="22" transform="matrix(-1 0 0 1 183 6.33893)" fill="black"/>
<rect x="177" y="0.338928" width="2" height="171" transform="rotate(90 177 0.338928)" fill="black"/>
<rect x="177" y="32.3389" width="2" height="171" transform="rotate(90 177 32.3389)" fill="black"/>
<path d="M11.8938 12.6389V22.5389H17.7938V20.6389H15.7938V18.5389H19.8938V24.6389H11.7938V22.6389H9.79375V12.5389H11.7938V10.5389H17.8938V12.5389H19.8938V14.6389H17.7938V12.6389H11.8938ZM21.7859 24.6389V10.5389H31.8859V12.6389H23.8859V16.5389H29.8859V18.6389H23.8859V22.5389H31.8859V24.6389H21.7859ZM33.7781 12.6389V10.5389H43.8781V12.6389H39.8781V24.6389H37.7781V12.6389H33.7781ZM57.7625 12.6389V10.5389H67.8625V12.6389H63.8625V22.5389H67.8625V24.6389H57.7625V22.5389H61.7625V12.6389H57.7625ZM73.7547 18.6389V14.6389H71.8547V24.6389H69.7547V10.5389H71.8547V12.5389H73.8547V14.5389H75.8547V18.5389H77.7547V10.5389H79.8547V24.6389H77.7547V20.6389H75.7547V18.6389H73.7547ZM93.7391 12.6389V10.5389H103.839V12.6389H99.8391V24.6389H97.7391V12.6389H93.7391ZM105.731 22.6389V12.5389H107.731V10.5389H113.831V12.5389H115.831V22.6389H113.831V24.6389H107.731V22.6389H105.731ZM107.831 12.6389V22.5389H113.731V12.6389H107.831ZM117.723 22.6389V10.5389H119.823V22.5389H125.723V10.5389H127.823V22.6389H125.823V24.6389H119.723V22.6389H117.723ZM129.716 22.6389V12.5389H131.716V10.5389H137.816V12.5389H139.816V14.6389H137.716V12.6389H131.816V22.5389H137.716V20.5389H139.816V22.6389H137.816V24.6389H131.716V22.6389H129.716ZM143.808 18.6389V24.6389H141.708V10.5389H143.808V16.5389H149.708V10.5389H151.808V24.6389H149.708V18.6389H143.808Z" fill="white"/>
<rect x="162" y="16.3389" width="2" height="2" fill="white"/>
<rect x="160" y="16.3389" width="2" height="2" fill="white"/>
<rect x="158" y="16.3389" width="2" height="2" fill="white"/>
<rect x="164" y="16.3389" width="2" height="2" fill="white"/>
<rect x="166" y="16.3389" width="2" height="2" fill="white"/>
<rect x="168" y="16.3389" width="2" height="2" fill="white"/>
<rect x="170" y="16.3389" width="2" height="2" fill="white"/>
<rect x="168" y="14.3389" width="2" height="2" fill="white"/>
<rect x="166" y="12.3389" width="2" height="2" fill="white"/>
<rect x="164" y="10.3389" width="2" height="2" fill="white"/>
<rect x="168" y="18.3389" width="2" height="2" fill="white"/>
<rect x="166" y="20.3389" width="2" height="2" fill="white"/>
<rect x="164" y="22.3389" width="2" height="2" fill="white"/>
</g>
<defs>
<filter id="filter0_d_452_1366" x="0" y="0.338928" width="183" height="36" filterUnits="userSpaceOnUse" color-interpolation-filters="sRGB">
<feFlood flood-opacity="0" result="BackgroundImageFix"/>
<feColorMatrix in="SourceAlpha" type="matrix" values="0 0 0 0 0 0 0 0 0 0 0 0 0 0 0 0 0 0 127 0" result="hardAlpha"/>
<feOffset dy="2"/>
<feComposite in2="hardAlpha" operator="out"/>
<feColorMatrix type="matrix" values="0 0 0 0 0 0 0 0 0 0 0 0 0 0 0 0 0 0 0.6 0"/>
<feBlend mode="normal" in2="BackgroundImageFix" result="effect1_dropShadow_452_1366"/>
<feBlend mode="normal" in="SourceGraphic" in2="effect1_dropShadow_452_1366" result="shape"/>
</filter>
</defs>
</svg>
