<svg width="147" height="35" viewBox="0 0 147 35" fill="none" xmlns="http://www.w3.org/2000/svg">
<path d="M1.73535 7.84473L7.78027 1.76562L139.78 1.78001L145.79 7.81836L145.79 27.815L139.796 33.8422L7.81592 33.8423L1.80267 27.8215L1.73535 7.84473Z" fill="white"/>
<rect x="4.78906" y="2.81885" width="2" height="2" fill="white"/>
<rect width="2" height="2" transform="matrix(-1 0 0 1 142.789 2.81885)" fill="white"/>
<rect width="2" height="2" transform="matrix(1 0 0 -1 4.78906 32.8188)" fill="white"/>
<rect x="142.789" y="32.8188" width="2" height="2" transform="rotate(180 142.789 32.8188)" fill="white"/>
<rect x="2.78906" y="4.81885" width="2" height="2" fill="white"/>
<rect width="2" height="2" transform="matrix(-1 0 0 1 144.789 4.81885)" fill="white"/>
<rect width="2" height="2" transform="matrix(1 0 0 -1 2.78906 30.8188)" fill="white"/>
<rect x="144.789" y="30.8188" width="2" height="2" transform="rotate(180 144.789 30.8188)" fill="white"/>
<rect x="0.789062" y="6.81885" width="2" height="22" fill="white"/>
<rect width="2" height="22" transform="matrix(-1 0 0 1 146.789 6.81885)" fill="white"/>
<rect x="140.789" y="0.818848" width="2" height="134" transform="rotate(90 140.789 0.818848)" fill="white"/>
<rect x="140.789" y="32.8188" width="2" height="134" transform="rotate(90 140.789 32.8188)" fill="white"/>
<path d="M16.5594 21.1188V19.1188H12.6594V25.1188H10.5594V11.0188H18.6594V13.0188H20.6594V17.1188H18.6594V21.0188H20.6594V25.1188H18.5594V21.1188H16.5594ZM12.6594 13.1188V17.0188H18.5594V13.1188H12.6594ZM22.5516 25.1188V11.0188H32.6516V13.1188H24.6516V17.0188H30.6516V19.1188H24.6516V23.0188H32.6516V25.1188H22.5516ZM36.6438 21.1188V25.1188H34.5437V13.0188H36.5438V11.0188H42.6438V13.0188H44.6438V25.1188H42.5438V21.1188H36.6438ZM36.6438 13.1188V19.0188H42.5438V13.1188H36.6438ZM46.5359 25.1188V11.0188H54.6359V13.0188H56.6359V23.1188H54.6359V25.1188H46.5359ZM48.6359 13.1188V23.0188H54.5359V13.1188H48.6359ZM74.5203 21.1188V17.1188H72.6203V25.1188H70.5203V11.0188H72.6203V13.0188H74.6203V17.0188H76.5203V13.0188H78.5203V11.0188H80.6203V25.1188H78.5203V17.1188H76.6203V21.1188H74.5203ZM82.5125 23.1188V13.0188H84.5125V11.0188H90.6125V13.0188H92.6125V23.1188H90.6125V25.1188H84.5125V23.1188H82.5125ZM84.6125 13.1188V23.0188H90.5125V13.1188H84.6125ZM100.505 21.1188V19.1188H96.6047V25.1188H94.5047V11.0188H102.605V13.0188H104.605V17.1188H102.605V21.0188H104.605V25.1188H102.505V21.1188H100.505ZM96.6047 13.1188V17.0188H102.505V13.1188H96.6047ZM106.497 25.1188V11.0188H116.597V13.1188H108.597V17.0188H114.597V19.1188H108.597V23.0188H116.597V25.1188H106.497Z" fill="#24425A"/>
<rect x="126.789" y="16.8188" width="2" height="2" fill="#24425A"/>
<rect x="124.789" y="16.8188" width="2" height="2" fill="#24425A"/>
<rect x="122.789" y="16.8188" width="2" height="2" fill="#24425A"/>
<rect x="128.789" y="16.8188" width="2" height="2" fill="#24425A"/>
<rect x="130.789" y="16.8188" width="2" height="2" fill="#24425A"/>
<rect x="132.789" y="16.8188" width="2" height="2" fill="#24425A"/>
<rect x="134.789" y="16.8188" width="2" height="2" fill="#24425A"/>
<rect x="132.789" y="14.8188" width="2" height="2" fill="#24425A"/>
<rect x="130.789" y="12.8188" width="2" height="2" fill="#24425A"/>
<rect x="128.789" y="10.8188" width="2" height="2" fill="#24425A"/>
<rect x="132.789" y="18.8188" width="2" height="2" fill="#24425A"/>
<rect x="130.789" y="20.8188" width="2" height="2" fill="#24425A"/>
<rect x="128.789" y="22.8188" width="2" height="2" fill="#24425A"/>
</svg>
