<svg width="35" height="36" viewBox="0 0 35 36" fill="none" xmlns="http://www.w3.org/2000/svg">
<path d="M1.15723 9.02588L7.20215 2.94678L27.2021 2.96116L33.2114 8.99951L33.2114 28.9961L27.2176 35.0233L7.2378 35.0235L1.22455 29.0026L1.15723 9.02588Z" fill="#26D4FF"/>
<rect x="4.21094" y="4" width="2" height="2" fill="black"/>
<rect width="2" height="2" transform="matrix(1 0 0 -1 4.21094 34)" fill="black"/>
<rect x="2.21094" y="6" width="2" height="2" fill="black"/>
<rect width="2" height="2" transform="matrix(-1 0 0 1 30.2109 4)" fill="black"/>
<rect width="2" height="2" transform="matrix(-1 0 0 1 32.2109 6)" fill="black"/>
<rect width="2" height="2" transform="matrix(1 0 0 -1 2.21094 32)" fill="black"/>
<rect x="30.2109" y="34" width="2" height="2" transform="rotate(180 30.2109 34)" fill="black"/>
<rect x="32.2109" y="32" width="2" height="2" transform="rotate(180 32.2109 32)" fill="black"/>
<rect x="0.210938" y="8" width="2" height="22" fill="black"/>
<rect width="2" height="22" transform="matrix(-1 0 0 1 34.2109 8)" fill="black"/>
<rect x="28.2109" y="2" width="2" height="22" transform="rotate(90 28.2109 2)" fill="black"/>
<rect x="28.2109" y="34" width="2" height="22" transform="rotate(90 28.2109 34)" fill="black"/>
<g clip-path="url(#clip0_460_844)">
<path d="M21.9788 14.5283C21.2317 14.5308 20.4821 14.5267 19.735 14.5283V15.6667H18.6333V16.7643H16.3894V17.8619H15.2877V18.9391L15.2264 19.0002H13.0438V20.0978H11.9421V21.1954H9.69826V20.0978H6.35309V19.0002H5.27221L5.21094 18.9391V17.923L5.27221 17.8619H6.3535V16.7643H9.69907V15.6667H11.8817L11.9429 15.6056V14.5283H15.2885V13.4307H18.6341V12.3331H20.8167L20.8779 12.2721V11.1948H24.2235V10.0972H26.4265V9H27.5687V10.0976H28.6704V12.3335H27.5687V17.8619H26.4874L26.4261 17.923V23.4309H25.3244V27.9024H24.2227V29H21.9788V27.9024H20.8771V26.8251L20.8159 26.7641H18.6333V25.6665H16.3894V26.7641H15.2877V27.8413L15.2264 27.9024H14.1451V22.3333H15.2873V21.2357H16.389V20.0974H17.4907V18.9998H18.6329V17.8615H19.7346V16.7639H20.8767V15.6663H21.9784C21.9797 15.2876 21.9768 14.907 21.9784 14.5279C22.3449 14.5267 22.7133 14.5288 23.0801 14.5279V13.4303H21.9784C21.9772 13.7955 21.9801 14.1627 21.9784 14.5279L21.9788 14.5283Z" fill="white"/>
</g>
<defs>
<clipPath id="clip0_460_844">
<rect width="23.4586" height="20" fill="white" transform="translate(5.21094 9)"/>
</clipPath>
</defs>
</svg>
