<svg width="34" height="37" viewBox="0 0 34 37" fill="none" xmlns="http://www.w3.org/2000/svg">
<g filter="url(#filter0_d_452_1441)">
<path d="M0.946289 7.36482L6.99121 1.28572L26.9911 1.3001L33.0005 7.33846L33.0005 27.3351L27.0067 33.3623L7.02686 33.3624L1.01361 27.3416L0.946289 7.36482Z" fill="#3E3E3E"/>
<rect x="4" y="2.33893" width="2" height="2" fill="black"/>
<rect width="2" height="2" transform="matrix(1 0 0 -1 4 32.3389)" fill="black"/>
<rect x="2" y="4.33893" width="2" height="2" fill="black"/>
<rect width="2" height="2" transform="matrix(-1 0 0 1 30 2.33893)" fill="black"/>
<rect width="2" height="2" transform="matrix(-1 0 0 1 32 4.33893)" fill="black"/>
<rect width="2" height="2" transform="matrix(1 0 0 -1 2 30.3389)" fill="black"/>
<rect x="30" y="32.3389" width="2" height="2" transform="rotate(180 30 32.3389)" fill="black"/>
<rect x="32" y="30.3389" width="2" height="2" transform="rotate(180 32 30.3389)" fill="black"/>
<rect y="6.33893" width="2" height="22" fill="black"/>
<rect width="2" height="22" transform="matrix(-1 0 0 1 34 6.33893)" fill="black"/>
<rect x="28" y="0.338928" width="2" height="22" transform="rotate(90 28 0.338928)" fill="black"/>
<rect x="28" y="32.3389" width="2" height="22" transform="rotate(90 28 32.3389)" fill="black"/>
<g clip-path="url(#clip0_452_1441)">
<path d="M6 6.33893H13.7106V7.44756H14.803L14.8407 7.48456V8.55619H15.9458V10.7488H17.0759V11.8574H18.181V12.9414H20.4036L20.4413 12.9044V11.8574H21.5086L21.5463 11.8204V10.7488H22.6765V9.64016H23.7815V8.55619H24.874L24.9117 8.5192V7.44756H26.0419V6.33893H29.2566V7.44756H28.2771V8.5192L28.2394 8.55619H27.1469V9.64016H26.0419V10.7118L26.0042 10.7488H24.9117V11.8204L24.874 11.8574H23.7815V12.9414H22.6765V14.013L22.6388 14.05H21.5463V15.134H20.4413V16.2426H21.5463V18.4352H22.6765V19.5439H23.7815V21.7365H24.9117V22.8081L24.9494 22.8451H26.0419V25.0377H27.1469V26.1217H28.2771V27.2303H29.2566V28.3389H21.5461V27.2303H20.4411V26.1587L20.4033 26.1217H19.3109V23.9291H18.1807V22.8451H17.0757V21.7365H14.8405V22.8081L14.8028 22.8451H13.7103V23.9291H12.5801V25.0377H11.4751V26.1217H10.3827L10.3449 26.1587V27.2303H9.21477V28.3389H6V27.2303H6.97957V26.1587L7.01728 26.1217H8.10974V25.0377H9.21477V23.9661L9.25248 23.9291H10.3449V22.8451H11.4374L11.4751 22.8081V21.7365H12.5801V20.6648L12.6179 20.6278H13.7103V19.5439H14.8153V18.4352H13.7103V16.2426H12.5801V15.134H11.4751V12.9414H10.3449V11.8574H9.25248L9.21477 11.8204V9.64016H8.10974V8.55619H6.97957V7.44756H6V6.33893ZM13.7106 8.55619H10.3449V10.7488H11.4751V11.8328C11.4997 11.8249 11.5297 11.8574 11.538 11.8574H12.5804V14.013L12.6181 14.05H13.7106V15.134H14.803L14.8407 15.171V17.3266H15.908L15.9458 17.3636V18.4352H17.0759V19.5439H18.181V21.7365H19.3111V22.8451H20.4413V23.9291H21.5463V26.1217H24.912V23.9291H23.7818V22.8451H22.6768V20.6648L22.639 20.6278H21.5466V19.5439H20.4416V17.3883L20.4038 17.3513H19.3491L19.3114 17.3143V16.2426H18.1812V15.134H17.0762V12.9414H15.946V11.8574H14.8536L14.8158 11.8204V9.64016H13.7108V8.55619H13.7106Z" fill="white"/>
</g>
</g>
<defs>
<filter id="filter0_d_452_1441" x="0" y="0.338928" width="34" height="36" filterUnits="userSpaceOnUse" color-interpolation-filters="sRGB">
<feFlood flood-opacity="0" result="BackgroundImageFix"/>
<feColorMatrix in="SourceAlpha" type="matrix" values="0 0 0 0 0 0 0 0 0 0 0 0 0 0 0 0 0 0 127 0" result="hardAlpha"/>
<feOffset dy="2"/>
<feComposite in2="hardAlpha" operator="out"/>
<feColorMatrix type="matrix" values="0 0 0 0 0 0 0 0 0 0 0 0 0 0 0 0 0 0 0.6 0"/>
<feBlend mode="normal" in2="BackgroundImageFix" result="effect1_dropShadow_452_1441"/>
<feBlend mode="normal" in="SourceGraphic" in2="effect1_dropShadow_452_1441" result="shape"/>
</filter>
<clipPath id="clip0_452_1441">
<rect width="23.2571" height="22" fill="white" transform="translate(6 6.33893)"/>
</clipPath>
</defs>
</svg>
