<svg width="198" height="36" viewBox="0 0 198 36" fill="none" xmlns="http://www.w3.org/2000/svg">
<rect x="4.88379" y="2.11768" width="2.15301" height="2.11765" fill="white"/>
<rect width="2.153" height="2.11765" transform="matrix(-1 0 0 1 193.272 2.11768)" fill="white"/>
<rect width="2.15301" height="2.11765" transform="matrix(1 0 0 -1 4.88379 33.8823)" fill="white"/>
<rect x="193.272" y="33.8823" width="2.153" height="2.11765" transform="rotate(180 193.272 33.8823)" fill="white"/>
<rect x="2.73145" y="4.23535" width="2.15301" height="2.11765" fill="white"/>
<rect width="2.15302" height="2.11765" transform="matrix(-1 0 0 1 195.425 4.23535)" fill="white"/>
<rect width="2.15301" height="2.11765" transform="matrix(1 0 0 -1 2.73145 31.7646)" fill="white"/>
<rect x="195.425" y="31.7646" width="2.15302" height="2.11765" transform="rotate(180 195.425 31.7646)" fill="white"/>
<rect x="0.578125" y="6.35303" width="2.15301" height="23.2941" fill="white"/>
<rect width="2.153" height="23.2941" transform="matrix(-1 0 0 1 197.578 6.35303)" fill="white"/>
<rect x="191.119" width="2.11765" height="184.082" transform="rotate(90 191.119 0)" fill="white"/>
<rect x="191.119" y="33.8823" width="2.11765" height="184.082" transform="rotate(90 191.119 33.8823)" fill="white"/>
<path d="M19.4338 13.3V23.2H25.3338V21.3H23.3338V19.2H27.4338V25.3H19.3338V23.3H17.3338V13.2H19.3338V11.2H25.4338V13.2H27.4338V15.3H25.3338V13.3H19.4338ZM29.326 25.3V11.2H39.426V13.3H31.426V17.2H37.426V19.3H31.426V23.2H39.426V25.3H29.326ZM41.3182 13.3V11.2H51.4182V13.3H47.4182V25.3H45.3182V13.3H41.3182ZM65.3025 13.3V11.2H75.4025V13.3H71.4025V23.2H75.4025V25.3H65.3025V23.2H69.3025V13.3H65.3025ZM81.2947 19.3V15.3H79.3947V25.3H77.2947V11.2H79.3947V13.2H81.3947V15.2H83.3947V19.2H85.2947V11.2H87.3947V25.3H85.2947V21.3H83.2947V19.3H81.2947ZM101.279 13.3V11.2H111.379V13.3H107.379V25.3H105.279V13.3H101.279ZM113.271 23.3V13.2H115.271V11.2H121.371V13.2H123.371V23.3H121.371V25.3H115.271V23.3H113.271ZM115.371 13.3V23.2H121.271V13.3H115.371ZM125.263 23.3V11.2H127.363V23.2H133.263V11.2H135.363V23.3H133.363V25.3H127.263V23.3H125.263ZM137.256 23.3V13.2H139.256V11.2H145.356V13.2H147.356V15.3H145.256V13.3H139.356V23.2H145.256V21.2H147.356V23.3H145.356V25.3H139.256V23.3H137.256ZM151.348 19.3V25.3H149.248V11.2H151.348V17.2H157.248V11.2H159.348V25.3H157.248V19.3H151.348Z" fill="white"/>
<rect x="169.54" y="17" width="2" height="2" fill="white"/>
<rect x="167.54" y="17" width="2" height="2" fill="white"/>
<rect x="165.54" y="17" width="2" height="2" fill="white"/>
<rect x="171.54" y="17" width="2" height="2" fill="white"/>
<rect x="173.54" y="17" width="2" height="2" fill="white"/>
<rect x="175.54" y="17" width="2" height="2" fill="white"/>
<rect x="177.54" y="17" width="2" height="2" fill="white"/>
<rect x="175.54" y="15" width="2" height="2" fill="white"/>
<rect x="173.54" y="13" width="2" height="2" fill="white"/>
<rect x="171.54" y="11" width="2" height="2" fill="white"/>
<rect x="175.54" y="19" width="2" height="2" fill="white"/>
<rect x="173.54" y="21" width="2" height="2" fill="white"/>
<rect x="171.54" y="23" width="2" height="2" fill="white"/>
</svg>
