<svg width="26" height="25" viewBox="0 0 26 25" fill="none" xmlns="http://www.w3.org/2000/svg">
<g id="memory:email">
<path id="Vector" d="M1.79297 6.30873L2.36366 6.30873L2.36366 5.17236L23.6364 5.17236L23.6364 6.30873L24.2068 6.30873L24.2068 21.0815L23.6364 21.0815L23.6364 21.6801L2.36366 21.6801L2.36366 21.0815L1.79297 21.0815L1.79297 6.30873ZM3.58607 19.8275L22.4137 19.8275L22.4137 10.3448L21.2728 10.3448L21.2728 11.711L18.9091 11.711L18.9091 12.931L16.5861 12.931L16.5861 14.2633L14.1818 14.2633L14.1818 15.3996L11.8182 15.3996L11.8182 14.2633L9.45457 14.2633L9.45457 12.931L7.09093 12.931L7.09093 11.7166L4.7273 11.7166L4.7273 10.3448L3.58607 10.3448L3.58607 19.8275ZM22.4546 6.66162L3.58607 6.66162L3.54548 8.58145L5.90912 8.58145L5.90912 10.1099L8.27275 10.1099L8.27275 11.3255L10.6364 11.3255L10.6364 12.4986L15.3637 12.4986L15.3637 11.2068L17.7273 11.2068L17.7273 9.71782L20.0909 9.71782L20.0909 8.58145L22.4546 8.58145L22.4546 6.66162Z" fill="white"/>
</g>
</svg>
