<svg width="37" height="36" viewBox="0 0 37 36" fill="none" xmlns="http://www.w3.org/2000/svg">
<rect x="30.2256" y="14.2764" width="2.11765" height="23.2941" transform="rotate(90 30.2256 14.2764)" fill="white"/>
<rect x="30.2256" y="19.6062" width="2.11765" height="23.2941" transform="rotate(90 30.2256 19.6062)" fill="white"/>
<rect x="4.81348" y="2.11768" width="2.11765" height="2.11765" fill="white"/>
<rect width="2.11765" height="2.11765" transform="matrix(1 0 0 -1 4.81348 33.8823)" fill="white"/>
<rect x="2.69629" y="4.23535" width="2.11765" height="2.11765" fill="white"/>
<rect width="2.11765" height="2.11765" transform="matrix(-1 0 0 1 32.3428 2.11768)" fill="white"/>
<rect width="2.11765" height="2.11765" transform="matrix(-1 0 0 1 34.4609 4.23535)" fill="white"/>
<rect width="2.11765" height="2.11765" transform="matrix(1 0 0 -1 2.69629 31.7646)" fill="white"/>
<rect x="32.3428" y="33.8823" width="2.11765" height="2.11765" transform="rotate(180 32.3428 33.8823)" fill="white"/>
<rect x="34.4609" y="31.7646" width="2.11765" height="2.11765" transform="rotate(180 34.4609 31.7646)" fill="white"/>
<rect x="0.578125" y="6.35278" width="2.11765" height="23.2941" fill="white"/>
<rect width="2.11765" height="23.2941" transform="matrix(-1 0 0 1 36.5781 6.35278)" fill="white"/>
<rect x="30.2256" width="2.11765" height="23.2941" transform="rotate(90 30.2256 0)" fill="white"/>
<rect x="30.2256" y="33.8823" width="2.11765" height="23.2941" transform="rotate(90 30.2256 33.8823)" fill="white"/>
</svg>
