<svg width="24" height="21" viewBox="0 0 24 21" fill="none" xmlns="http://www.w3.org/2000/svg">
<g clip-path="url(#clip0_381_13520)">
<path d="M16.7679 6.02835C16.0208 6.03079 15.2712 6.02672 14.524 6.02835V7.16667H13.4223V8.26428H11.1785V9.36188H10.0768V10.4391L10.0155 10.5002H7.83289V11.5978H6.73118V12.6954H4.48732V11.5978H1.14215V10.5002H0.0612743L0 10.4391V9.42295L0.0612743 9.36188H1.14256V8.26428H4.48813V7.16667H6.67072L6.732 7.1056V6.02835H10.0776V4.93074H13.4231V3.83313H15.6057L15.667 3.77206V2.69481H19.0126V1.5972H21.2156V0.5H22.3577V1.59761H23.4595V3.83354H22.3577V9.36188H21.2765L21.2152 9.42295V14.9309H20.1135V19.4024H19.0118V20.5H16.7679V19.4024H15.6662V18.3251L15.6049 18.2641H13.4223V17.1665H11.1785V18.2641H10.0768V19.3413L10.0155 19.4024H8.9342V13.8333H10.0763V12.7357H11.1781V11.5974H12.2798V10.4998H13.4219V9.36148H14.5236V8.26387H15.6658V7.16626H16.7675C16.7687 6.78763 16.7659 6.40697 16.7675 6.02794C17.1339 6.02672 17.5024 6.02875 17.8692 6.02794V4.93033H16.7675C16.7663 5.29552 16.7691 5.66275 16.7675 6.02794L16.7679 6.02835Z" fill="white"/>
</g>
<defs>
<clipPath id="clip0_381_13520">
<rect width="23.4586" height="20" fill="white" transform="translate(0 0.5)"/>
</clipPath>
</defs>
</svg>
