<svg width="24" height="23" viewBox="0 0 24 23" fill="none" xmlns="http://www.w3.org/2000/svg">
<g clip-path="url(#clip0_381_13516)">
<path d="M0 0.5H7.71056V1.60863H8.80302L8.84073 1.64563V2.71726H9.94576V4.90987H11.0759V6.0185H12.181V7.10247H14.4036L14.4413 7.06547V6.0185H15.5086L15.5463 5.9815V4.90987H16.6765V3.80123H17.7815V2.71726H18.874L18.9117 2.68027V1.60863H20.0419V0.5H23.2566V1.60863H22.2771V2.68027L22.2394 2.71726H21.1469V3.80123H20.0419V4.87287L20.0042 4.90987H18.9117V5.9815L18.874 6.0185H17.7815V7.10247H16.6765V8.1741L16.6388 8.2111H15.5463V9.29507H14.4413V10.4037H15.5463V12.5963H16.6765V13.7049H17.7815V15.8975H18.9117V16.9692L18.9494 17.0062H20.0419V19.1988H21.1469V20.2827H22.2771V21.3914H23.2566V22.5H15.5461V21.3914H14.4411V20.3197L14.4033 20.2827H13.3109V18.0901H12.1807V17.0062H11.0757V15.8975H8.84048V16.9692L8.80277 17.0062H7.71031V18.0901H6.58014V19.1988H5.47511V20.2827H4.38265L4.34494 20.3197V21.3914H3.21477V22.5H0V21.3914H0.979566V20.3197L1.01728 20.2827H2.10974V19.1988H3.21477V18.1271L3.25248 18.0901H4.34494V17.0062H5.43739L5.47511 16.9692V15.8975H6.58014V14.8259L6.61785 14.7889H7.71031V13.7049H8.81534V12.5963H7.71031V10.4037H6.58014V9.29507H5.47511V7.10247H4.34494V6.0185H3.25248L3.21477 5.9815V3.80123H2.10974V2.71726H0.979566V1.60863H0V0.5ZM7.71056 2.71726H4.34494V4.90987H5.47511V5.99383C5.49975 5.98594 5.52967 6.0185 5.53797 6.0185H6.58039V8.1741L6.6181 8.2111H7.71056V9.29507H8.80302L8.84073 9.33206V11.4877H9.90805L9.94576 11.5247V12.5963H11.0759V13.7049H12.181V15.8975H13.3111V17.0062H14.4413V18.0901H15.5463V20.2827H18.912V18.0901H17.7818V17.0062H16.6768V14.8259L16.639 14.7889H15.5466V13.7049H14.4416V11.5493L14.4038 11.5123H13.3491L13.3114 11.4753V10.4037H12.1812V9.29507H11.0762V7.10247H9.94601V6.0185H8.85355L8.81584 5.9815V3.80123H7.71081V2.71726H7.71056Z" fill="white"/>
</g>
<defs>
<clipPath id="clip0_381_13516">
<rect width="23.2571" height="22" fill="white" transform="translate(0 0.5)"/>
</clipPath>
</defs>
</svg>
