<svg width="76" height="66" viewBox="0 0 76 66" fill="none" xmlns="http://www.w3.org/2000/svg">
<g filter="url(#filter0_i_368_19869)">
<rect width="76" height="66" transform="matrix(-1 0 0 1 76 0)" fill="#B1D0F4"/>
<rect x="-1.5" y="1.5" width="73" height="63" transform="matrix(-1 0 0 1 73 0)" stroke="black" stroke-width="3"/>
<rect x="29.793" y="30.5713" width="4.85714" height="4.85714" fill="#110404"/>
<rect x="24.9365" y="30.5713" width="4.85714" height="4.85714" fill="#110404"/>
<rect x="20.0791" y="30.5714" width="4.85714" height="4.85714" fill="#110404"/>
<rect x="34.6504" y="30.5714" width="4.85714" height="4.85714" fill="#110404"/>
<rect x="39.5078" y="30.5714" width="4.85714" height="4.85714" fill="#110404"/>
<rect x="44.3652" y="30.5713" width="4.85714" height="4.85714" fill="#110404"/>
<rect x="49.2217" y="30.5713" width="4.85714" height="4.85714" fill="#110404"/>
<rect x="44.3643" y="25.7139" width="4.85714" height="4.85714" fill="#110404"/>
<rect x="39.5078" y="20.8574" width="4.85714" height="4.85714" fill="#110404"/>
<rect x="34.6504" y="16" width="4.85714" height="4.85714" fill="#110404"/>
<rect x="44.3652" y="35.4287" width="4.85714" height="4.85714" fill="#110404"/>
<rect x="39.5078" y="40.2861" width="4.85714" height="4.85714" fill="#110404"/>
<rect x="34.6504" y="45.1426" width="4.85714" height="4.85714" fill="#110404"/>
</g>
<defs>
<filter id="filter0_i_368_19869" x="0" y="0" width="76" height="66" filterUnits="userSpaceOnUse" color-interpolation-filters="sRGB">
<feFlood flood-opacity="0" result="BackgroundImageFix"/>
<feBlend mode="normal" in="SourceGraphic" in2="BackgroundImageFix" result="shape"/>
<feColorMatrix in="SourceAlpha" type="matrix" values="0 0 0 0 0 0 0 0 0 0 0 0 0 0 0 0 0 0 127 0" result="hardAlpha"/>
<feOffset dx="-8" dy="-5"/>
<feComposite in2="hardAlpha" operator="arithmetic" k2="-1" k3="1"/>
<feColorMatrix type="matrix" values="0 0 0 0 0 0 0 0 0 0 0 0 0 0 0 0 0 0 0.17 0"/>
<feBlend mode="normal" in2="shape" result="effect1_innerShadow_368_19869"/>
</filter>
</defs>
</svg>
