<svg width="198" height="162" viewBox="0 0 198 162" fill="none" xmlns="http://www.w3.org/2000/svg">
<g clip-path="url(#clip0_301_20789)">
<path d="M131.668 10.125H126.617V126.563H131.668V10.125Z" fill="black"/>
<path d="M106.412 10.125H101.361V126.563H106.412V10.125Z" fill="black"/>
<path d="M10.4375 10.125H5.38623V126.563H10.4375V10.125Z" fill="black"/>
<path d="M76.104 10.125H71.0527V126.563H76.104V10.125Z" fill="black"/>
<path d="M91.2578 10.125H86.2065V126.563H91.2578V10.125Z" fill="black"/>
<path d="M197.335 10.125H192.284V126.563H197.335V10.125Z" fill="black"/>
<path d="M136.72 5.0625H131.668V10.125H136.72V5.0625Z" fill="black"/>
<path d="M15.4888 5.0625H10.4375V10.125H15.4888V5.0625Z" fill="black"/>
<path d="M71.0527 5.0625H66.0015V10.125H71.0527V5.0625Z" fill="black"/>
<path d="M86.2066 5.0625H81.1553V10.125H86.2066V5.0625Z" fill="black"/>
<path d="M86.2066 126.562H81.1553V131.625H86.2066V126.562Z" fill="black"/>
<path d="M66.0015 5.0625L71.0527 5.0625V0L66.0015 0V5.0625Z" fill="#FE93CE"/>
<path d="M66.0015 136.688H71.0527V131.625H66.0015V136.688Z" fill="#FE93CE"/>
<path d="M81.1553 0H71.0527V5.0625H81.1553V0Z" fill="black"/>
<path d="M81.1553 131.625H71.0527V136.688H81.1553V131.625Z" fill="black"/>
<path d="M15.4888 126.562H10.4375V131.625H15.4888V126.562Z" fill="black"/>
<path d="M86.2066 10.125V126.563H81.1553V131.625H71.0527V126.563H76.104V10.125H71.0527V5.0625H81.1553V10.125H86.2066Z" fill="#FE93CE"/>
<path d="M71.0527 126.562H66.0015V131.625H71.0527V126.562Z" fill="black"/>
<path d="M111.463 5.0625H106.412V10.125H111.463V5.0625Z" fill="black"/>
<path d="M111.463 126.562H106.412V131.625H111.463V126.562Z" fill="black"/>
<path d="M131.669 0H111.463V5.0625H131.669V0Z" fill="black"/>
<path d="M131.669 131.625H111.463V136.688H131.669V131.625Z" fill="black"/>
<path d="M126.617 10.125V126.563H131.669V131.625H111.463V126.563H106.412V10.125H111.463V5.0625H131.669V10.125H126.617Z" fill="#FE93CE"/>
<path d="M136.72 126.562H131.668V131.625H136.72V126.562Z" fill="black"/>
<path d="M136.72 131.625H131.668V136.688H136.72V131.625Z" fill="#FE93CE"/>
<path d="M136.72 0H131.668V5.0625H136.72V0Z" fill="#FE93CE"/>
<path d="M192.284 126.562H187.232V131.625H192.284V126.562Z" fill="black"/>
<path d="M192.284 5.0625H187.232V10.125H192.284V5.0625Z" fill="black"/>
<path d="M187.233 131.625H136.72V136.688H187.233V131.625Z" fill="black"/>
<path d="M187.233 75.9375H136.72V81H187.233V75.9375Z" fill="black"/>
<path d="M66.0016 75.9375H15.4888V81H66.0016V75.9375Z" fill="black"/>
<path d="M187.233 0H136.72V5.0625H187.233V0Z" fill="black"/>
<path d="M146.822 30.375H141.771V50.625H146.822V30.375Z" fill="black"/>
<path d="M182.181 30.375H177.13V50.625H182.181V30.375Z" fill="black"/>
<path d="M172.079 55.6875H151.874V60.75H172.079V55.6875Z" fill="black"/>
<path d="M172.079 20.25H151.874V25.3125H172.079V20.25Z" fill="black"/>
<path d="M151.874 25.3125H146.822V30.375H151.874V25.3125Z" fill="black"/>
<path d="M151.874 50.625H146.822V55.6875H151.874V50.625Z" fill="black"/>
<path d="M177.13 50.625H172.079V55.6875H177.13V50.625Z" fill="black"/>
<path d="M156.925 96.1875H151.874V101.25H156.925V96.1875Z" fill="black"/>
<path d="M156.925 111.375H151.874V116.438H156.925V111.375Z" fill="black"/>
<path d="M172.079 111.375H167.027V116.438H172.079V111.375Z" fill="black"/>
<path d="M172.079 96.1875H167.027V101.25H172.079V96.1875Z" fill="black"/>
<path d="M161.976 35.4375H156.925V40.5H161.976V35.4375Z" fill="#F7FF9C"/>
<path d="M161.976 101.25H156.925V106.312H161.976V101.25Z" fill="#F7FF9C"/>
<path d="M167.027 40.5H161.976V45.5625H167.027V40.5Z" fill="#F7FF9C"/>
<path d="M161.976 40.5H156.925V45.5625H161.976V40.5Z" fill="#FFA2A2"/>
<path d="M167.027 50.625H151.874V55.6875H167.027V50.625Z" fill="#FFA2A2"/>
<path d="M151.874 35.4375H146.822V50.625H151.874V35.4375Z" fill="#FFA2A2"/>
<path d="M167.027 35.4375H161.976V40.5H167.027V35.4375Z" fill="#FFA2A2"/>
<path d="M167.027 106.312H161.976V111.375H167.027V106.312Z" fill="#F7FF9C"/>
<path d="M177.13 25.3125H172.079V30.375H177.13V25.3125Z" fill="black"/>
<path d="M60.9502 30.375H55.8989V50.625H60.9502V30.375Z" fill="black"/>
<path d="M25.5913 30.375H20.54V50.625H25.5913V30.375Z" fill="black"/>
<path d="M50.8477 55.6875H30.6426V60.75H50.8477V55.6875Z" fill="black"/>
<path d="M50.8477 20.25H30.6426V25.3125H50.8477V20.25Z" fill="black"/>
<path d="M55.8989 25.3125H50.8477V30.375H55.8989V25.3125Z" fill="black"/>
<path d="M55.8989 50.625H50.8477V55.6875H55.8989V50.625Z" fill="black"/>
<path d="M30.6426 50.625H25.5913V55.6875H30.6426V50.625Z" fill="black"/>
<path d="M45.7964 35.4375H40.7451V40.5H45.7964V35.4375Z" fill="#FFA2A2"/>
<path d="M40.7451 40.5H35.6938V45.5625H40.7451V40.5Z" fill="#FFA2A2"/>
<path d="M45.7964 40.5H40.7451V45.5625H45.7964V40.5Z" fill="#F7FF9C"/>
<path d="M50.8477 50.625H35.6938V55.6875H50.8477V50.625Z" fill="#FFA2A2"/>
<path d="M55.8989 35.4375H50.8477V50.625H55.8989V35.4375Z" fill="#FFA2A2"/>
<path d="M40.7451 35.4375H35.6938V40.5H40.7451V35.4375Z" fill="#F7FF9C"/>
<path d="M30.6426 25.3125H25.5913V30.375H30.6426V25.3125Z" fill="black"/>
<path d="M167.027 91.125H156.925V96.1875H167.027V91.125Z" fill="black"/>
<path d="M151.874 101.25H146.822V111.375H151.874V101.25Z" fill="black"/>
<path d="M177.13 101.25H172.079V111.375H177.13V101.25Z" fill="black"/>
<path d="M167.027 116.438H156.925V121.5H167.027V116.438Z" fill="black"/>
<path d="M50.8477 96.1875H45.7964V101.25H50.8477V96.1875Z" fill="black"/>
<path d="M50.8477 111.375H45.7964V116.438H50.8477V111.375Z" fill="black"/>
<path d="M35.6939 111.375H30.6426V116.438H35.6939V111.375Z" fill="black"/>
<path d="M35.6939 96.1875H30.6426V101.25H35.6939V96.1875Z" fill="black"/>
<path d="M45.7964 101.25H40.7451V106.312H45.7964V101.25Z" fill="#F7FF9C"/>
<path d="M40.7451 106.312H35.6938V111.375H40.7451V106.312Z" fill="#F7FF9C"/>
<path d="M45.7964 91.125H35.6938V96.1875H45.7964V91.125Z" fill="black"/>
<path d="M55.8989 101.25H50.8477V111.375H55.8989V101.25Z" fill="black"/>
<path d="M30.6426 101.25H25.5913V111.375H30.6426V101.25Z" fill="black"/>
<path d="M45.7964 116.438H35.6938V121.5H45.7964V116.438Z" fill="black"/>
<path d="M192.284 10.125H187.232V101.25H192.284V10.125Z" fill="#B1D0F4"/>
<path d="M187.232 5.0625H167.027V10.125H187.232V5.0625Z" fill="#B1D0F4"/>
<path d="M187.233 101.25V81H136.72V75.9375H187.233V10.125H167.027V5.0625H136.72V10.125H131.668V126.563H192.284V101.25H187.233ZM141.771 30.375H146.822V25.3125H151.874V20.25H172.079V25.3125H177.13V30.375H182.181V50.625H177.13V55.6875H172.079V60.75H151.874V55.6875H146.822V50.625H141.771V30.375ZM177.13 111.375H172.079V116.438H167.027V121.5H156.925V116.438H151.874V111.375H146.822V101.25H151.874V96.1875H156.925V91.125H167.027V96.1875H172.079V101.25H177.13V111.375Z" fill="white"/>
<path d="M167.027 111.375V116.438H156.925V111.375H151.874V101.25H156.925V106.312H161.976V111.375H167.027Z" fill="#FFA2A2"/>
<path d="M172.079 101.25V111.375H167.027V106.312H161.976V101.25H156.925V96.1875H167.027V101.25H172.079Z" fill="#FFC98E"/>
<path d="M172.079 30.375V25.3125H151.874V30.375H146.822V35.4375H151.874V50.625H167.027V55.6875H172.079V50.625H177.13V30.375H172.079ZM167.027 45.5625H156.925V35.4375H167.027V45.5625Z" fill="#FFC98E"/>
<path d="M187.233 126.562H136.72V131.625H187.233V126.562Z" fill="#FE93CE"/>
<path d="M66.0016 0H15.4888V5.0625H66.0016V0Z" fill="black"/>
<path d="M66.0016 10.125V5.0625H15.4888V10.125H10.4375V126.563H15.4888V131.625H66.0016V126.563H71.0529V10.125H66.0016ZM20.5401 30.375H25.5913V25.3125H30.6426V20.25H50.8478V25.3125H55.899V30.375H60.9503V50.625H55.899V55.6875H50.8478V60.75H30.6426V55.6875H25.5913V50.625H20.5401V30.375ZM55.899 111.375H50.8478V116.438H45.7965V121.5H35.6939V116.438H30.6426V111.375H25.5913V101.25H30.6426V96.1875H35.6939V91.125H45.7965V96.1875H50.8478V101.25H55.899V111.375ZM66.0016 81H15.4888V75.9375H66.0016V81Z" fill="white"/>
<path d="M45.7964 96.1875V101.25H40.7451V106.312H35.6939V111.375H30.6426V101.25H35.6939V96.1875H45.7964Z" fill="#FFC98E"/>
<path d="M50.8477 101.25V111.375H45.7964V116.438H35.6938V111.375H40.7451V106.312H45.7964V101.25H50.8477Z" fill="#FFA2A2"/>
<path d="M50.8477 30.375V25.3125H30.6426V30.375H25.5913V50.625H30.6426V55.6875H35.6939V50.625H50.8477V35.4375H55.899V30.375H50.8477ZM45.7964 45.5625H35.6939V35.4375H45.7964V45.5625Z" fill="#FFC98E"/>
<path d="M66.0016 131.625H15.4888V136.688H66.0016V131.625Z" fill="black"/>
<path d="M10.4375 131.625H5.38623V136.688H10.4375V131.625Z" fill="black"/>
<path d="M10.4375 146.812H5.38623V151.875H10.4375V146.812Z" fill="black"/>
<path d="M161.976 151.875H10.4375V156.938H161.976V151.875Z" fill="black"/>
<path d="M5.38624 136.688H0.334961V146.812H5.38624V136.688Z" fill="black"/>
<path d="M177.13 146.812H172.079V151.875H177.13V146.812Z" fill="#FFC98E"/>
<path d="M172.079 151.875H167.027V156.938H172.079V151.875Z" fill="black"/>
<path d="M167.027 146.812H161.976V151.875H167.027V146.812Z" fill="#FFC98E"/>
<path d="M182.181 151.875H177.13V156.938H182.181V151.875Z" fill="black"/>
<path d="M177.13 151.875H172.079V156.938H177.13V151.875Z" fill="#F7FF9C"/>
<path d="M177.13 156.938H172.079V162H177.13V156.938Z" fill="#FFC98E"/>
<path d="M187.232 146.812H182.181V151.875H187.232V146.812Z" fill="#FFC98E"/>
<path d="M192.284 151.875H187.232V156.938H192.284V151.875Z" fill="black"/>
<path d="M187.232 151.875H182.181V156.938H187.232V151.875Z" fill="#F7FF9C"/>
<path d="M187.232 156.938H182.181V162H187.232V156.938Z" fill="#FFC98E"/>
<path d="M167.027 151.875H161.976V156.938H167.027V151.875Z" fill="#F7FF9C"/>
<path d="M167.027 156.938H161.976V162H167.027V156.938Z" fill="#FFC98E"/>
<path d="M197.335 151.875H192.284V156.938H197.335V151.875Z" fill="#F7FF9C"/>
<path d="M182.181 146.812H177.13V151.875H182.181V146.812Z" fill="#F7FF9C"/>
<path d="M172.079 146.812H167.027V151.875H172.079V146.812Z" fill="#F7FF9C"/>
<path d="M182.181 156.938H177.13V162H182.181V156.938Z" fill="#F7FF9C"/>
<path d="M172.079 156.938H167.027V162H172.079V156.938Z" fill="#F7FF9C"/>
<path d="M71.0527 10.125H66.0015V35.4375H71.0527V10.125Z" fill="#B1D0F4"/>
<path d="M66.0015 5.0625H60.9502V10.125H66.0015V5.0625Z" fill="#B1D0F4"/>
<path d="M55.8989 5.0625H50.8477V10.125H55.8989V5.0625Z" fill="#B1D0F4"/>
<path d="M45.7964 5.0625H40.7451V10.125H45.7964V5.0625Z" fill="#B1D0F4"/>
<path d="M35.6939 5.0625H30.6426V10.125H35.6939V5.0625Z" fill="#B1D0F4"/>
</g>
<defs>
<clipPath id="clip0_301_20789">
<rect width="197" height="162" fill="white" transform="translate(0.334961)"/>
</clipPath>
</defs>
</svg>
