<svg width="89" height="39" viewBox="0 0 89 39" fill="none" xmlns="http://www.w3.org/2000/svg">
<path d="M1.90234 7.92693L8.72223 1.06848L80.927 1.08471L87.7068 7.89718L87.7068 30.4574L80.9445 37.2573L8.76245 37.2574L1.9783 30.4647L1.90234 7.92693Z" fill="white"/>
<rect x="5.34814" y="2.25635" width="2.2564" height="2.2564" fill="black"/>
<rect width="2.2564" height="2.2564" transform="matrix(1 0 0 -1 5.34814 36.1024)" fill="black"/>
<rect x="3.0918" y="4.51282" width="2.2564" height="2.2564" fill="black"/>
<rect width="2.2564" height="2.2564" transform="matrix(-1 0 0 1 84.3223 2.25623)" fill="black"/>
<rect width="2.2564" height="2.2564" transform="matrix(-1 0 0 1 86.5791 4.51257)" fill="black"/>
<rect width="2.2564" height="2.2564" transform="matrix(1 0 0 -1 3.0918 33.8461)" fill="black"/>
<rect x="84.3223" y="36.1024" width="2.2564" height="2.2564" transform="rotate(180 84.3223 36.1024)" fill="black"/>
<rect x="86.5791" y="33.8461" width="2.2564" height="2.2564" transform="rotate(180 86.5791 33.8461)" fill="black"/>
<rect x="0.835449" y="6.76917" width="2.2564" height="24.8204" fill="black"/>
<rect width="2.2564" height="24.8204" transform="matrix(-1 0 0 1 88.835 6.76917)" fill="black"/>
<rect x="82.0659" width="2.2564" height="74.4613" transform="rotate(90 82.0659 0)" fill="black"/>
<rect x="82.0659" y="36.1024" width="2.2564" height="74.4613" transform="rotate(90 82.0659 36.1024)" fill="black"/>
<path d="M34.4942 21.339V16.539H32.2142V28.539H29.6942V11.619H32.2142V14.019H34.6142V16.419H37.0142V21.219H39.2942V11.619H41.8142V28.539H39.2942V23.739H36.8942V21.339H34.4942ZM44.0848 26.139V14.019H46.4848V11.619H53.8048V14.019H56.2048V26.139H53.8048V28.539H46.4848V26.139H44.0848ZM46.6048 14.139V26.019H53.6848V14.139H46.6048Z" fill="#110404"/>
</svg>
