<svg width="89" height="39" viewBox="0 0 89 39" fill="none" xmlns="http://www.w3.org/2000/svg">
<path d="M1.90186 7.92693L8.72174 1.06848L80.9265 1.08471L87.7063 7.89718L87.7063 30.4574L80.944 37.2573L8.76196 37.2574L1.97781 30.4647L1.90186 7.92693Z" fill="#FE93CE"/>
<rect x="5.34766" y="2.25635" width="2.2564" height="2.2564" fill="black"/>
<rect width="2.2564" height="2.2564" transform="matrix(1 0 0 -1 5.34766 36.1024)" fill="black"/>
<rect x="3.09131" y="4.51282" width="2.2564" height="2.2564" fill="black"/>
<rect width="2.2564" height="2.2564" transform="matrix(-1 0 0 1 84.3218 2.25623)" fill="black"/>
<rect width="2.2564" height="2.2564" transform="matrix(-1 0 0 1 86.5786 4.51257)" fill="black"/>
<rect width="2.2564" height="2.2564" transform="matrix(1 0 0 -1 3.09131 33.8461)" fill="black"/>
<rect x="84.3218" y="36.1024" width="2.2564" height="2.2564" transform="rotate(180 84.3218 36.1024)" fill="black"/>
<rect x="86.5786" y="33.8461" width="2.2564" height="2.2564" transform="rotate(180 86.5786 33.8461)" fill="black"/>
<rect x="0.834961" y="6.76917" width="2.2564" height="24.8204" fill="black"/>
<rect width="2.2564" height="24.8204" transform="matrix(-1 0 0 1 88.8345 6.76917)" fill="black"/>
<rect x="82.0654" width="2.2564" height="74.4613" transform="rotate(90 82.0654 0)" fill="black"/>
<rect x="82.0654" y="36.1024" width="2.2564" height="74.4613" transform="rotate(90 82.0654 36.1024)" fill="black"/>
<rect x="15.6802" y="19.1017" width="2.15405" height="2.15405" fill="#110404"/>
<rect x="17.834" y="19.1017" width="2.15405" height="2.15405" fill="#110404"/>
<rect x="19.9883" y="19.1017" width="2.15405" height="2.15405" fill="#110404"/>
<rect x="22.1426" y="19.1017" width="2.15405" height="2.15405" fill="#110404"/>
<rect x="17.834" y="16.9476" width="2.15405" height="2.15405" fill="#110404"/>
<rect x="19.9883" y="16.9476" width="2.15405" height="2.15405" fill="#110404"/>
<rect x="15.6802" y="16.9476" width="2.15405" height="2.15405" fill="#110404"/>
<rect x="15.6802" y="14.7936" width="2.15405" height="2.15405" fill="#110404"/>
<rect x="17.834" y="21.2557" width="2.15405" height="2.15405" fill="#110404"/>
<rect x="19.9883" y="21.2557" width="2.15405" height="2.15405" fill="#110404"/>
<rect x="15.6802" y="21.2557" width="2.15405" height="2.15405" fill="#110404"/>
<rect x="15.6802" y="23.4098" width="2.15405" height="2.15405" fill="#110404"/>
<path d="M28.7645 18.9387V11.6187H31.2845V18.8187H33.6845V21.2187H35.9645V18.8187H38.3645V11.6187H40.8845V18.9387H38.4845V21.3387H36.0845V28.5387H33.5645V21.3387H31.1645V18.9387H28.7645ZM43.1551 28.5387V11.6187H55.2751V14.1387H45.6751V18.8187H52.8751V21.3387H45.6751V26.0187H55.2751V28.5387H43.1551ZM60.0658 14.1387V18.8187H67.2658V21.2187H69.6658V26.1387H67.2658V28.5387H57.5458V26.0187H67.1458V21.3387H59.9458V18.9387H57.5458V14.0187H59.9458V11.6187H69.6658V14.1387H60.0658Z" fill="#110404"/>
</svg>
