<svg width="183" height="36" viewBox="0 0 183 36" fill="none" xmlns="http://www.w3.org/2000/svg">
<g clip-path="url(#clip0_484_709)">
<g filter="url(#filter0_d_484_709)">
<path d="M0.946289 7.02572L6.99121 0.94662L175.99 0.961158L182 6.99951L182 26.9961L176.006 33.0233H7.02686L1.01361 27.0025L0.946289 7.02572Z" fill="white"/>
<rect x="4" y="2" width="2" height="2" fill="black"/>
<rect width="2" height="2" transform="matrix(-1 0 0 1 179 2)" fill="black"/>
<rect width="2" height="2" transform="matrix(1 0 0 -1 4 32)" fill="black"/>
<rect x="179" y="32" width="2" height="2" transform="rotate(180 179 32)" fill="black"/>
<rect x="2" y="4" width="2" height="2" fill="black"/>
<rect width="2" height="2" transform="matrix(-1 0 0 1 181 4)" fill="black"/>
<rect width="2" height="2" transform="matrix(1 0 0 -1 2 30)" fill="black"/>
<rect x="181" y="30" width="2" height="2" transform="rotate(180 181 30)" fill="black"/>
<rect y="6" width="2" height="22" fill="black"/>
<rect width="2" height="22" transform="matrix(-1 0 0 1 183 6)" fill="black"/>
<rect x="177" width="2" height="171" transform="rotate(90 177 0)" fill="black"/>
<rect x="177" y="32" width="2" height="171" transform="rotate(90 177 32)" fill="black"/>
<path d="M11.8938 12.3V22.2H17.7938V20.3H15.7938V18.2H19.8938V24.3H11.7938V22.3H9.79375V12.2H11.7938V10.2H17.8938V12.2H19.8938V14.3H17.7938V12.3H11.8938ZM21.7859 24.3V10.2H31.8859V12.3H23.8859V16.2H29.8859V18.3H23.8859V22.2H31.8859V24.3H21.7859ZM33.7781 12.3V10.2H43.8781V12.3H39.8781V24.3H37.7781V12.3H33.7781ZM57.7625 12.3V10.2H67.8625V12.3H63.8625V22.2H67.8625V24.3H57.7625V22.2H61.7625V12.3H57.7625ZM73.7547 18.3V14.3H71.8547V24.3H69.7547V10.2H71.8547V12.2H73.8547V14.2H75.8547V18.2H77.7547V10.2H79.8547V24.3H77.7547V20.3H75.7547V18.3H73.7547ZM93.7391 12.3V10.2H103.839V12.3H99.8391V24.3H97.7391V12.3H93.7391ZM105.731 22.3V12.2H107.731V10.2H113.831V12.2H115.831V22.3H113.831V24.3H107.731V22.3H105.731ZM107.831 12.3V22.2H113.731V12.3H107.831ZM117.723 22.3V10.2H119.823V22.2H125.723V10.2H127.823V22.3H125.823V24.3H119.723V22.3H117.723ZM129.716 22.3V12.2H131.716V10.2H137.816V12.2H139.816V14.3H137.716V12.3H131.816V22.2H137.716V20.2H139.816V22.3H137.816V24.3H131.716V22.3H129.716ZM143.808 18.3V24.3H141.708V10.2H143.808V16.2H149.708V10.2H151.808V24.3H149.708V18.3H143.808Z" fill="#110404"/>
<rect x="162" y="16" width="2" height="2" fill="#110404"/>
<rect x="160" y="16" width="2" height="2" fill="#110404"/>
<rect x="158" y="16" width="2" height="2" fill="#110404"/>
<rect x="164" y="16" width="2" height="2" fill="#110404"/>
<rect x="166" y="16" width="2" height="2" fill="#110404"/>
<rect x="168" y="16" width="2" height="2" fill="#110404"/>
<rect x="170" y="16" width="2" height="2" fill="#110404"/>
<rect x="168" y="14" width="2" height="2" fill="#110404"/>
<rect x="166" y="12" width="2" height="2" fill="#110404"/>
<rect x="164" y="10" width="2" height="2" fill="#110404"/>
<rect x="168" y="18" width="2" height="2" fill="#110404"/>
<rect x="166" y="20" width="2" height="2" fill="#110404"/>
<rect x="164" y="22" width="2" height="2" fill="#110404"/>
</g>
</g>
<defs>
<filter id="filter0_d_484_709" x="0" y="0" width="183" height="36" filterUnits="userSpaceOnUse" color-interpolation-filters="sRGB">
<feFlood flood-opacity="0" result="BackgroundImageFix"/>
<feColorMatrix in="SourceAlpha" type="matrix" values="0 0 0 0 0 0 0 0 0 0 0 0 0 0 0 0 0 0 127 0" result="hardAlpha"/>
<feOffset dy="2"/>
<feComposite in2="hardAlpha" operator="out"/>
<feColorMatrix type="matrix" values="0 0 0 0 0 0 0 0 0 0 0 0 0 0 0 0 0 0 0.6 0"/>
<feBlend mode="normal" in2="BackgroundImageFix" result="effect1_dropShadow_484_709"/>
<feBlend mode="normal" in="SourceGraphic" in2="effect1_dropShadow_484_709" result="shape"/>
</filter>
<clipPath id="clip0_484_709">
<rect width="183" height="36" fill="white"/>
</clipPath>
</defs>
</svg>
