<svg width="35" height="36" viewBox="0 0 35 36" fill="none" xmlns="http://www.w3.org/2000/svg">
<path d="M1.15723 9.02588L7.20215 2.94678L27.2021 2.96116L33.2114 8.99951L33.2114 28.9961L27.2176 35.0233L7.2378 35.0235L1.22455 29.0026L1.15723 9.02588Z" fill="#3E3E3E"/>
<rect x="4.21094" y="4" width="2" height="2" fill="black"/>
<rect width="2" height="2" transform="matrix(1 0 0 -1 4.21094 34)" fill="black"/>
<rect x="2.21094" y="6" width="2" height="2" fill="black"/>
<rect width="2" height="2" transform="matrix(-1 0 0 1 30.2109 4)" fill="black"/>
<rect width="2" height="2" transform="matrix(-1 0 0 1 32.2109 6)" fill="black"/>
<rect width="2" height="2" transform="matrix(1 0 0 -1 2.21094 32)" fill="black"/>
<rect x="30.2109" y="34" width="2" height="2" transform="rotate(180 30.2109 34)" fill="black"/>
<rect x="32.2109" y="32" width="2" height="2" transform="rotate(180 32.2109 32)" fill="black"/>
<rect x="0.210938" y="8" width="2" height="22" fill="black"/>
<rect width="2" height="22" transform="matrix(-1 0 0 1 34.2109 8)" fill="black"/>
<rect x="28.2109" y="2" width="2" height="22" transform="rotate(90 28.2109 2)" fill="black"/>
<rect x="28.2109" y="34" width="2" height="22" transform="rotate(90 28.2109 34)" fill="black"/>
<g clip-path="url(#clip0_460_841)">
<path d="M6.21094 8H13.9215V9.10863H15.014L15.0517 9.14563V10.2173H16.1567V12.4099H17.2869V13.5185H18.3919V14.6025H20.6145L20.6522 14.5655V13.5185H21.7196L21.7573 13.4815V12.4099H22.8874V11.3012H23.9925V10.2173H25.0849L25.1226 10.1803V9.10863H26.2528V8H29.4676V9.10863H28.488V10.1803L28.4503 10.2173H27.3578V11.3012H26.2528V12.3729L26.2151 12.4099H25.1226V13.4815L25.0849 13.5185H23.9925V14.6025H22.8874V15.6741L22.8497 15.7111H21.7573V16.7951H20.6522V17.9037H21.7573V20.0963H22.8874V21.2049H23.9925V23.3975H25.1226V24.4692L25.1604 24.5062H26.2528V26.6988H27.3578V27.7827H28.488V28.8914H29.4676V30H21.757V28.8914H20.652V27.8197L20.6143 27.7827H19.5218V25.5901H18.3916V24.5062H17.2866V23.3975H15.0514V24.4692L15.0137 24.5062H13.9212V25.5901H12.7911V26.6988H11.686V27.7827H10.5936L10.5559 27.8197V28.8914H9.4257V30H6.21094V28.8914H7.1905V27.8197L7.22822 27.7827H8.32067V26.6988H9.4257V25.6271L9.46342 25.5901H10.5559V24.5062H11.6483L11.686 24.4692V23.3975H12.7911V22.3259L12.8288 22.2889H13.9212V21.2049H15.0263V20.0963H13.9212V17.9037H12.7911V16.7951H11.686V14.6025H10.5559V13.5185H9.46342L9.4257 13.4815V11.3012H8.32067V10.2173H7.1905V9.10863H6.21094V8ZM13.9215 10.2173H10.5559V12.4099H11.686V13.4938C11.7107 13.4859 11.7406 13.5185 11.7489 13.5185H12.7913V15.6741L12.829 15.7111H13.9215V16.7951H15.014L15.0517 16.8321V18.9877H16.119L16.1567 19.0247V20.0963H17.2869V21.2049H18.3919V23.3975H19.5221V24.5062H20.6522V25.5901H21.7573V27.7827H25.1229V25.5901H23.9927V24.5062H22.8877V22.3259L22.85 22.2889H21.7575V21.2049H20.6525V19.0493L20.6148 19.0123H19.56L19.5223 18.9753V17.9037H18.3921V16.7951H17.2871V14.6025H16.1569V13.5185H15.0645L15.0268 13.4815V11.3012H13.9217V10.2173H13.9215Z" fill="white"/>
</g>
<defs>
<clipPath id="clip0_460_841">
<rect width="23.2571" height="22" fill="white" transform="translate(6.21094 8)"/>
</clipPath>
</defs>
</svg>
